<mxfile host="65bd71144e">
    <diagram id="plJMdCocybJatWcdmLVI" name="Page-1">
        <mxGraphModel dx="896" dy="604" grid="1" gridSize="10" guides="1" tooltips="1" connect="1" arrows="1" fold="1" page="1" pageScale="1" pageWidth="850" pageHeight="1100" math="0" shadow="0">
            <root>
                <mxCell id="0"/>
                <mxCell id="1" parent="0"/>
                <mxCell id="2" value="&lt;font style=&quot;font-size: 17px;&quot;&gt;SWOT&lt;/font&gt;" style="rhombus;whiteSpace=wrap;html=1;" vertex="1" parent="1">
                    <mxGeometry x="380" y="280" width="80" height="80" as="geometry"/>
                </mxCell>
                <mxCell id="3" value="&lt;font style=&quot;font-size: 14px;&quot;&gt;VOS FORCES&lt;/font&gt;&lt;br&gt;&lt;br&gt;Quels sont vos point fort ?&lt;br&gt;Qu'est-ce qui vous rend unique ?&lt;br&gt;Que faites vous mieux que les autres ?&lt;br&gt;Que dit-on de bien sur votre offre ?" style="whiteSpace=wrap;html=1;aspect=fixed;" vertex="1" parent="1">
                    <mxGeometry x="240" y="140" width="160" height="160" as="geometry"/>
                </mxCell>
                <mxCell id="4" value="&lt;font style=&quot;font-size: 14px;&quot;&gt;VOS FAIBLESSES&lt;/font&gt;&lt;br&gt;&lt;br&gt;Quels sont les inconvénients de votre offre ?&lt;br&gt;Quelles lacunes identifiez-vous ?&lt;br&gt;Quels points sont à améliorer ?&lt;br&gt;Que font mieux vos concurrent ?" style="whiteSpace=wrap;html=1;aspect=fixed;" vertex="1" parent="1">
                    <mxGeometry x="440" y="140" width="160" height="160" as="geometry"/>
                </mxCell>
                <mxCell id="5" value="&lt;font style=&quot;font-size: 14px;&quot;&gt;LES MENACES&lt;/font&gt;&lt;br&gt;&lt;br&gt;Quelles sont les tendances du secteur ?&lt;br&gt;Quelles sont les évolutions à venir ?&lt;br&gt;Qu'est-ce qui peut vous impacter ?&lt;br&gt;Quels sont les obstacles ou freins" style="whiteSpace=wrap;html=1;aspect=fixed;" vertex="1" parent="1">
                    <mxGeometry x="440" y="340" width="160" height="160" as="geometry"/>
                </mxCell>
                <mxCell id="6" value="&lt;font style=&quot;font-size: 14px;&quot;&gt;LES OPPORTUNITÉS&lt;/font&gt;&lt;br&gt;&lt;br&gt;Il y a t-il des possibilités de partenaires ?&lt;br&gt;Quels nouveaux besoins identifiez-vous ?&lt;br&gt;Quels services pouvez-vous développer ?&lt;br&gt;Quelles sont les lacunes de vos concurrent ?" style="whiteSpace=wrap;html=1;aspect=fixed;" vertex="1" parent="1">
                    <mxGeometry x="240" y="340" width="160" height="160" as="geometry"/>
                </mxCell>
                <mxCell id="7" value="LE POSITIF" style="text;html=1;align=center;verticalAlign=middle;resizable=0;points=[];autosize=1;strokeColor=none;fillColor=none;" vertex="1" parent="1">
                    <mxGeometry x="270" y="110" width="90" height="30" as="geometry"/>
                </mxCell>
                <mxCell id="8" value="LE NÉGATIF" style="text;html=1;align=center;verticalAlign=middle;resizable=0;points=[];autosize=1;strokeColor=none;fillColor=none;" vertex="1" parent="1">
                    <mxGeometry x="475" y="110" width="90" height="30" as="geometry"/>
                </mxCell>
                <mxCell id="9" value="INTERNE" style="text;html=1;align=center;verticalAlign=middle;resizable=0;points=[];autosize=1;strokeColor=none;fillColor=none;rotation=-90;" vertex="1" parent="1">
                    <mxGeometry x="175" y="200" width="80" height="30" as="geometry"/>
                </mxCell>
                <mxCell id="10" value="EXTERNE" style="text;html=1;align=center;verticalAlign=middle;resizable=0;points=[];autosize=1;strokeColor=none;fillColor=none;rotation=-90;" vertex="1" parent="1">
                    <mxGeometry x="175" y="405" width="80" height="30" as="geometry"/>
                </mxCell>
                <mxCell id="11" value="&lt;font style=&quot;font-size: 27px;&quot;&gt;O&lt;/font&gt;" style="rhombus;whiteSpace=wrap;html=1;" vertex="1" parent="1">
                    <mxGeometry x="180" y="480" width="80" height="80" as="geometry"/>
                </mxCell>
                <mxCell id="12" value="&lt;font style=&quot;font-size: 27px;&quot;&gt;T&lt;/font&gt;" style="rhombus;whiteSpace=wrap;html=1;" vertex="1" parent="1">
                    <mxGeometry x="580" y="480" width="80" height="80" as="geometry"/>
                </mxCell>
                <mxCell id="13" value="&lt;font style=&quot;font-size: 27px;&quot;&gt;W&lt;/font&gt;" style="rhombus;whiteSpace=wrap;html=1;" vertex="1" parent="1">
                    <mxGeometry x="580" y="80" width="80" height="80" as="geometry"/>
                </mxCell>
                <mxCell id="14" value="&lt;font style=&quot;font-size: 26px;&quot;&gt;S&lt;/font&gt;" style="rhombus;whiteSpace=wrap;html=1;" vertex="1" parent="1">
                    <mxGeometry x="180" y="80" width="80" height="80" as="geometry"/>
                </mxCell>
            </root>
        </mxGraphModel>
    </diagram>
</mxfile>